<?xml version="1.0" encoding="UTF-8" standalone="no"?>
<!DOCTYPE svg PUBLIC "-//W3C//DTD SVG 1.1//EN"
 "http://www.w3.org/Graphics/SVG/1.1/DTD/svg11.dtd">
<!-- Generated by graphviz version 2.26.3 (20100126.1600)
 -->
<!-- Title: controllers_diagram Pages: 1 -->
<svg width="2291pt" height="1479pt"
 viewBox="0.00 0.00 2291.10 1479.40" xmlns="http://www.w3.org/2000/svg" xmlns:xlink="http://www.w3.org/1999/xlink">
<g id="graph1" class="graph" transform="scale(1 1) rotate(0) translate(4 1475.4)">
<title>controllers_diagram</title>
<polygon fill="white" stroke="white" points="-4,5 -4,-1475.4 2288.1,-1475.4 2288.1,5 -4,5"/>
<!-- _diagram_info -->
<g id="node1" class="node"><title>_diagram_info</title>
<text text-anchor="start" x="1224" y="-78.3" font-family="Times Roman,serif" font-size="13.00">Controllers diagram</text>
<text text-anchor="start" x="1224" y="-61.3" font-family="Times Roman,serif" font-size="13.00">Date: Nov 15 2013 &#45; 22:58</text>
<text text-anchor="start" x="1224" y="-44.3" font-family="Times Roman,serif" font-size="13.00">Migration version: 104</text>
<text text-anchor="start" x="1224" y="-27.3" font-family="Times Roman,serif" font-size="13.00">Generated by RailRoady 1.1.1</text>
<text text-anchor="start" x="1224" y="-10.3" font-family="Times Roman,serif" font-size="13.00">http://railroady.prestonlee.com</text>
</g>
<!-- TagsController -->
<g id="node2" class="node"><title>TagsController</title>
<ellipse fill="none" stroke="black" cx="110.421" cy="-1388.38" rx="82.0244" ry="18.3848"/>
<text text-anchor="middle" x="110.421" y="-1384.78" font-family="Times Roman,serif" font-size="14.00">TagsController</text>
</g>
<!-- XmlController -->
<g id="node3" class="node"><title>XmlController</title>
<ellipse fill="none" stroke="black" cx="1112.45" cy="-446.959" rx="79.9031" ry="18.3848"/>
<text text-anchor="middle" x="1112.45" y="-443.359" font-family="Times Roman,serif" font-size="14.00">XmlController</text>
</g>
<!-- TextfilterController -->
<g id="node4" class="node"><title>TextfilterController</title>
<ellipse fill="none" stroke="black" cx="478.646" cy="-480.423" rx="103.945" ry="18.3848"/>
<text text-anchor="middle" x="478.646" y="-476.823" font-family="Times Roman,serif" font-size="14.00">TextfilterController</text>
</g>
<!-- ThemeController -->
<g id="node5" class="node"><title>ThemeController</title>
<ellipse fill="none" stroke="black" cx="476.599" cy="-1066.34" rx="94.0452" ry="18.3848"/>
<text text-anchor="middle" x="476.599" y="-1062.74" font-family="Times Roman,serif" font-size="14.00">ThemeController</text>
</g>
<!-- FeedbackController -->
<g id="node6" class="node"><title>FeedbackController</title>
<ellipse fill="none" stroke="black" cx="958.57" cy="-154.5" rx="104.86" ry="18.3848"/>
<text text-anchor="middle" x="958.57" y="-150.9" font-family="Times Roman,serif" font-size="14.00">FeedbackController</text>
</g>
<!-- TrackbacksController -->
<g id="node7" class="node"><title>TrackbacksController</title>
<ellipse fill="none" stroke="black" cx="594.315" cy="-155.52" rx="113.137" ry="18.3848"/>
<text text-anchor="middle" x="594.315" y="-151.92" font-family="Times Roman,serif" font-size="14.00">TrackbacksController</text>
</g>
<!-- FeedbackController&#45;&gt;TrackbacksController -->
<g id="edge12" class="edge"><title>FeedbackController&#45;&gt;TrackbacksController</title>
<path fill="none" stroke="black" d="M853.212,-154.795C807.513,-154.923 753.92,-155.073 707.386,-155.203"/>
</g>
<!-- CommentsController -->
<g id="node8" class="node"><title>CommentsController</title>
<ellipse fill="none" stroke="black" cx="1299.34" cy="-164.486" rx="111.93" ry="18.3848"/>
<text text-anchor="middle" x="1299.34" y="-160.886" font-family="Times Roman,serif" font-size="14.00">CommentsController</text>
</g>
<!-- FeedbackController&#45;&gt;CommentsController -->
<g id="edge14" class="edge"><title>FeedbackController&#45;&gt;CommentsController</title>
<path fill="none" stroke="black" d="M1062.2,-157.537C1102.25,-158.71 1148.13,-160.055 1188.81,-161.247"/>
</g>
<!-- ArticlesController -->
<g id="node9" class="node"><title>ArticlesController</title>
<ellipse fill="none" stroke="black" cx="100.372" cy="-608.692" rx="96.8736" ry="18.3848"/>
<text text-anchor="middle" x="100.372" y="-605.092" font-family="Times Roman,serif" font-size="14.00">ArticlesController</text>
</g>
<!-- AccountsController -->
<g id="node10" class="node"><title>AccountsController</title>
<ellipse fill="none" stroke="black" cx="821.331" cy="-912.67" rx="104.151" ry="18.3848"/>
<text text-anchor="middle" x="821.331" y="-909.07" font-family="Times Roman,serif" font-size="14.00">AccountsController</text>
</g>
<!-- BackendController -->
<g id="node11" class="node"><title>BackendController</title>
<ellipse fill="none" stroke="black" cx="126.971" cy="-196.363" rx="101.116" ry="18.3848"/>
<text text-anchor="middle" x="126.971" y="-192.763" font-family="Times Roman,serif" font-size="14.00">BackendController</text>
</g>
<!-- SetupController -->
<g id="node12" class="node"><title>SetupController</title>
<ellipse fill="none" stroke="black" cx="796.324" cy="-473.532" rx="89.0955" ry="18.3848"/>
<text text-anchor="middle" x="796.324" y="-469.932" font-family="Times Roman,serif" font-size="14.00">SetupController</text>
</g>
<!-- ContentController -->
<g id="node13" class="node"><title>ContentController</title>
<ellipse fill="none" stroke="black" cx="546.184" cy="-765.623" rx="99.9096" ry="18.3848"/>
<text text-anchor="middle" x="546.184" y="-762.023" font-family="Times Roman,serif" font-size="14.00">ContentController</text>
</g>
<!-- ContentController&#45;&gt;ThemeController -->
<g id="edge8" class="edge"><title>ContentController&#45;&gt;ThemeController</title>
<path fill="none" stroke="black" d="M541.831,-784.434C529.335,-838.439 493.445,-993.539 480.95,-1047.53"/>
</g>
<!-- ContentController&#45;&gt;ArticlesController -->
<g id="edge16" class="edge"><title>ContentController&#45;&gt;ArticlesController</title>
<path fill="none" stroke="black" d="M499.317,-749.125C413.472,-718.907 231.988,-655.023 146.611,-624.969"/>
</g>
<!-- ContentController&#45;&gt;BackendController -->
<g id="edge20" class="edge"><title>ContentController&#45;&gt;BackendController</title>
<path fill="none" stroke="black" d="M532.474,-747.007C468.975,-660.779 203.854,-300.764 140.576,-214.838"/>
</g>
<!-- GroupingController -->
<g id="node16" class="node"><title>GroupingController</title>
<ellipse fill="none" stroke="black" cx="767.871" cy="-1158.27" rx="104.86" ry="18.3848"/>
<text text-anchor="middle" x="767.871" y="-1154.67" font-family="Times Roman,serif" font-size="14.00">GroupingController</text>
</g>
<!-- ContentController&#45;&gt;GroupingController -->
<g id="edge28" class="edge"><title>ContentController&#45;&gt;GroupingController</title>
<path fill="none" stroke="black" d="M556.579,-784.035C593.731,-849.836 719.717,-1072.98 757.241,-1139.44"/>
</g>
<!-- AuthorsController -->
<g id="node35" class="node"><title>AuthorsController</title>
<ellipse fill="none" stroke="black" cx="100" cy="-968.822" rx="98.9949" ry="18.3848"/>
<text text-anchor="middle" x="100" y="-965.222" font-family="Times Roman,serif" font-size="14.00">AuthorsController</text>
</g>
<!-- ContentController&#45;&gt;AuthorsController -->
<g id="edge66" class="edge"><title>ContentController&#45;&gt;AuthorsController</title>
<path fill="none" stroke="black" d="M508.527,-782.773C424.384,-821.093 221.91,-913.303 137.713,-951.647"/>
</g>
<!-- ApplicationController -->
<g id="node14" class="node"><title>ApplicationController</title>
<ellipse fill="none" stroke="black" cx="924.876" cy="-696.136" rx="113.844" ry="18.3848"/>
<text text-anchor="middle" x="924.876" y="-692.536" font-family="Times Roman,serif" font-size="14.00">ApplicationController</text>
</g>
<!-- ApplicationController&#45;&gt;XmlController -->
<g id="edge4" class="edge"><title>ApplicationController&#45;&gt;XmlController</title>
<path fill="none" stroke="black" d="M938.975,-677.407C973.908,-631.002 1064.14,-511.143 1098.7,-465.228"/>
</g>
<!-- ApplicationController&#45;&gt;TextfilterController -->
<g id="edge6" class="edge"><title>ApplicationController&#45;&gt;TextfilterController</title>
<path fill="none" stroke="black" d="M888.36,-678.483C804.371,-637.882 598.298,-538.264 514.73,-497.867"/>
</g>
<!-- ApplicationController&#45;&gt;FeedbackController -->
<g id="edge10" class="edge"><title>ApplicationController&#45;&gt;FeedbackController</title>
<path fill="none" stroke="black" d="M926.036,-677.491C931.22,-594.155 952.241,-256.242 957.415,-173.066"/>
</g>
<!-- ApplicationController&#45;&gt;AccountsController -->
<g id="edge18" class="edge"><title>ApplicationController&#45;&gt;AccountsController</title>
<path fill="none" stroke="black" d="M916.048,-714.597C896.534,-755.404 849.913,-852.9 830.284,-893.948"/>
</g>
<!-- ApplicationController&#45;&gt;SetupController -->
<g id="edge22" class="edge"><title>ApplicationController&#45;&gt;SetupController</title>
<path fill="none" stroke="black" d="M914.137,-677.539C889.879,-635.533 831.085,-533.726 806.942,-491.919"/>
</g>
<!-- ApplicationController&#45;&gt;ContentController -->
<g id="edge24" class="edge"><title>ApplicationController&#45;&gt;ContentController</title>
<path fill="none" stroke="black" d="M849.153,-710.03C781.593,-722.427 683.41,-740.443 617.293,-752.575"/>
</g>
<!-- Admin::BaseController -->
<g id="node24" class="node"><title>Admin::BaseController</title>
<ellipse fill="none" stroke="black" cx="1441.91" cy="-827.034" rx="120.915" ry="18.3848"/>
<text text-anchor="middle" x="1441.91" y="-823.434" font-family="Times Roman,serif" font-size="14.00">Admin::BaseController</text>
</g>
<!-- ApplicationController&#45;&gt;Admin::BaseController -->
<g id="edge44" class="edge"><title>ApplicationController&#45;&gt;Admin::BaseController</title>
<path fill="none" stroke="black" d="M986.474,-711.73C1085.55,-736.813 1279.27,-785.859 1379.11,-811.135"/>
</g>
<!-- CategoriesController -->
<g id="node15" class="node"><title>CategoriesController</title>
<ellipse fill="none" stroke="black" cx="530.312" cy="-1431.93" rx="111.93" ry="18.3848"/>
<text text-anchor="middle" x="530.312" y="-1428.33" font-family="Times Roman,serif" font-size="14.00">CategoriesController</text>
</g>
<!-- GroupingController&#45;&gt;TagsController -->
<g id="edge2" class="edge"><title>GroupingController&#45;&gt;TagsController</title>
<path fill="none" stroke="black" d="M720.589,-1174.82C598.549,-1217.53 274.202,-1331.05 155.097,-1372.74"/>
</g>
<!-- GroupingController&#45;&gt;CategoriesController -->
<g id="edge26" class="edge"><title>GroupingController&#45;&gt;CategoriesController</title>
<path fill="none" stroke="black" d="M751.916,-1176.65C708.743,-1226.38 589.967,-1363.21 546.511,-1413.27"/>
</g>
<!-- Admin::CacheController -->
<g id="node17" class="node"><title>Admin::CacheController</title>
<ellipse fill="none" stroke="black" cx="1738.37" cy="-782.03" rx="126.78" ry="18.3848"/>
<text text-anchor="middle" x="1738.37" y="-778.43" font-family="Times Roman,serif" font-size="14.00">Admin::CacheController</text>
</g>
<!-- Admin::TagsController -->
<g id="node18" class="node"><title>Admin::TagsController</title>
<ellipse fill="none" stroke="black" cx="2103.17" cy="-198.843" rx="118.794" ry="18.3848"/>
<text text-anchor="middle" x="2103.17" y="-195.243" font-family="Times Roman,serif" font-size="14.00">Admin::TagsController</text>
</g>
<!-- Admin::ProfilesController -->
<g id="node19" class="node"><title>Admin::ProfilesController</title>
<ellipse fill="none" stroke="black" cx="1162.79" cy="-1437.5" rx="132.936" ry="18.3848"/>
<text text-anchor="middle" x="1162.79" y="-1433.9" font-family="Times Roman,serif" font-size="14.00">Admin::ProfilesController</text>
</g>
<!-- Admin::FeedbackController -->
<g id="node20" class="node"><title>Admin::FeedbackController</title>
<ellipse fill="none" stroke="black" cx="1054.72" cy="-1141.93" rx="142.836" ry="18.3848"/>
<text text-anchor="middle" x="1054.72" y="-1138.33" font-family="Times Roman,serif" font-size="14.00">Admin::FeedbackController</text>
</g>
<!-- Admin::ResourcesController -->
<g id="node21" class="node"><title>Admin::ResourcesController</title>
<ellipse fill="none" stroke="black" cx="869.613" cy="-1451.9" rx="145.872" ry="18.3848"/>
<text text-anchor="middle" x="869.613" y="-1448.3" font-family="Times Roman,serif" font-size="14.00">Admin::ResourcesController</text>
</g>
<!-- Admin::SidebarController -->
<g id="node22" class="node"><title>Admin::SidebarController</title>
<ellipse fill="none" stroke="black" cx="1209.17" cy="-682.742" rx="133.851" ry="18.3848"/>
<text text-anchor="middle" x="1209.17" y="-679.142" font-family="Times Roman,serif" font-size="14.00">Admin::SidebarController</text>
</g>
<!-- Admin::DashboardController -->
<g id="node23" class="node"><title>Admin::DashboardController</title>
<ellipse fill="none" stroke="black" cx="1134.37" cy="-908.374" rx="149.907" ry="18.3848"/>
<text text-anchor="middle" x="1134.37" y="-904.774" font-family="Times Roman,serif" font-size="14.00">Admin::DashboardController</text>
</g>
<!-- Admin::BaseController&#45;&gt;Admin::CacheController -->
<g id="edge30" class="edge"><title>Admin::BaseController&#45;&gt;Admin::CacheController</title>
<path fill="none" stroke="black" d="M1528.06,-813.957C1566.44,-808.131 1611.6,-801.275 1650.21,-795.414"/>
</g>
<!-- Admin::BaseController&#45;&gt;Admin::TagsController -->
<g id="edge32" class="edge"><title>Admin::BaseController&#45;&gt;Admin::TagsController</title>
<path fill="none" stroke="black" d="M1470.31,-808.925C1543.6,-761.407 1743.23,-627.043 1883.7,-485.894 1974.64,-394.52 2061,-264.874 2091.53,-217.28"/>
</g>
<!-- Admin::BaseController&#45;&gt;Admin::ProfilesController -->
<g id="edge34" class="edge"><title>Admin::BaseController&#45;&gt;Admin::ProfilesController</title>
<path fill="none" stroke="black" d="M1420.22,-845.329C1373.14,-886.415 1261.78,-991.397 1211.01,-1105.64 1185.65,-1162.7 1168.94,-1357.13 1164.18,-1418.66"/>
</g>
<!-- Admin::BaseController&#45;&gt;Admin::FeedbackController -->
<g id="edge36" class="edge"><title>Admin::BaseController&#45;&gt;Admin::FeedbackController</title>
<path fill="none" stroke="black" d="M1419.42,-845.326C1350.99,-900.981 1145.79,-1067.87 1077.27,-1123.59"/>
</g>
<!-- Admin::BaseController&#45;&gt;Admin::ResourcesController -->
<g id="edge38" class="edge"><title>Admin::BaseController&#45;&gt;Admin::ResourcesController</title>
<path fill="none" stroke="black" d="M1422.27,-845.379C1378.35,-887.385 1271.38,-995.451 1211.01,-1105.64 1202.83,-1120.57 1208.4,-1127.73 1199.31,-1142.12 1114.99,-1275.59 959.831,-1390.44 897.053,-1433.63"/>
</g>
<!-- Admin::BaseController&#45;&gt;Admin::SidebarController -->
<g id="edge40" class="edge"><title>Admin::BaseController&#45;&gt;Admin::SidebarController</title>
<path fill="none" stroke="black" d="M1412.91,-809.051C1368.31,-781.401 1283.36,-728.738 1238.54,-700.952"/>
</g>
<!-- Admin::BaseController&#45;&gt;Admin::DashboardController -->
<g id="edge42" class="edge"><title>Admin::BaseController&#45;&gt;Admin::DashboardController</title>
<path fill="none" stroke="black" d="M1381.15,-843.104C1328.2,-857.11 1251.68,-877.35 1197.92,-891.568"/>
</g>
<!-- Admin::UsersController -->
<g id="node25" class="node"><title>Admin::UsersController</title>
<ellipse fill="none" stroke="black" cx="2126.82" cy="-1387.28" rx="123.951" ry="18.3848"/>
<text text-anchor="middle" x="2126.82" y="-1383.68" font-family="Times Roman,serif" font-size="14.00">Admin::UsersController</text>
</g>
<!-- Admin::BaseController&#45;&gt;Admin::UsersController -->
<g id="edge46" class="edge"><title>Admin::BaseController&#45;&gt;Admin::UsersController</title>
<path fill="none" stroke="black" d="M1474.48,-844.967C1543.73,-883.796 1709.33,-980.412 1832.66,-1082.43 1949.97,-1179.46 2069.9,-1318.9 2111.51,-1368.72"/>
</g>
<!-- Admin::ThemesController -->
<g id="node26" class="node"><title>Admin::ThemesController</title>
<ellipse fill="none" stroke="black" cx="1437.07" cy="-1425.54" rx="135.765" ry="18.3848"/>
<text text-anchor="middle" x="1437.07" y="-1421.94" font-family="Times Roman,serif" font-size="14.00">Admin::ThemesController</text>
</g>
<!-- Admin::BaseController&#45;&gt;Admin::ThemesController -->
<g id="edge48" class="edge"><title>Admin::BaseController&#45;&gt;Admin::ThemesController</title>
<path fill="none" stroke="black" d="M1448.97,-845.639C1465.15,-889.968 1503.56,-1005.61 1504.21,-1105.77 1504.96,-1222.34 1461.24,-1357.81 1443.96,-1406.72"/>
</g>
<!-- Admin::PagesController -->
<g id="node27" class="node"><title>Admin::PagesController</title>
<ellipse fill="none" stroke="black" cx="1647.63" cy="-160.166" rx="125.865" ry="18.3848"/>
<text text-anchor="middle" x="1647.63" y="-156.566" font-family="Times Roman,serif" font-size="14.00">Admin::PagesController</text>
</g>
<!-- Admin::BaseController&#45;&gt;Admin::PagesController -->
<g id="edge50" class="edge"><title>Admin::BaseController&#45;&gt;Admin::PagesController</title>
<path fill="none" stroke="black" d="M1448.6,-808.298C1466.11,-758.992 1514.44,-621.448 1550.29,-505.522 1588.57,-381.735 1628.91,-231.113 1642.69,-178.981"/>
</g>
<!-- Admin::SettingsController -->
<g id="node28" class="node"><title>Admin::SettingsController</title>
<ellipse fill="none" stroke="black" cx="2114.14" cy="-983.759" rx="137.886" ry="18.3848"/>
<text text-anchor="middle" x="2114.14" y="-980.159" font-family="Times Roman,serif" font-size="14.00">Admin::SettingsController</text>
</g>
<!-- Admin::BaseController&#45;&gt;Admin::SettingsController -->
<g id="edge52" class="edge"><title>Admin::BaseController&#45;&gt;Admin::SettingsController</title>
<path fill="none" stroke="black" d="M1508.52,-842.563C1636.46,-872.391 1915.39,-937.422 2045.17,-967.679"/>
</g>
<!-- Admin::TextfiltersController -->
<g id="node29" class="node"><title>Admin::TextfiltersController</title>
<ellipse fill="none" stroke="black" cx="1357.61" cy="-1105.7" rx="145.163" ry="18.3848"/>
<text text-anchor="middle" x="1357.61" y="-1102.1" font-family="Times Roman,serif" font-size="14.00">Admin::TextfiltersController</text>
</g>
<!-- Admin::BaseController&#45;&gt;Admin::TextfiltersController -->
<g id="edge54" class="edge"><title>Admin::BaseController&#45;&gt;Admin::TextfiltersController</title>
<path fill="none" stroke="black" d="M1436.25,-845.751C1420.89,-896.517 1378.58,-1036.4 1363.25,-1087.07"/>
</g>
<!-- Admin::ContentController -->
<g id="node30" class="node"><title>Admin::ContentController</title>
<ellipse fill="none" stroke="black" cx="1745.11" cy="-485.706" rx="137.179" ry="18.3848"/>
<text text-anchor="middle" x="1745.11" y="-482.106" font-family="Times Roman,serif" font-size="14.00">Admin::ContentController</text>
</g>
<!-- Admin::BaseController&#45;&gt;Admin::ContentController -->
<g id="edge56" class="edge"><title>Admin::BaseController&#45;&gt;Admin::ContentController</title>
<path fill="none" stroke="black" d="M1458.22,-808.683C1510.86,-749.417 1675.97,-563.543 1728.73,-504.148"/>
</g>
<!-- Admin::PostTypesController -->
<g id="node31" class="node"><title>Admin::PostTypesController</title>
<ellipse fill="none" stroke="black" cx="2136.6" cy="-614.689" rx="145.163" ry="18.3848"/>
<text text-anchor="middle" x="2136.6" y="-611.089" font-family="Times Roman,serif" font-size="14.00">Admin::PostTypesController</text>
</g>
<!-- Admin::BaseController&#45;&gt;Admin::PostTypesController -->
<g id="edge58" class="edge"><title>Admin::BaseController&#45;&gt;Admin::PostTypesController</title>
<path fill="none" stroke="black" d="M1496.14,-810.46C1625.14,-771.027 1949.33,-671.934 2080.35,-631.883"/>
</g>
<!-- Admin::CategoriesController -->
<g id="node32" class="node"><title>Admin::CategoriesController</title>
<ellipse fill="none" stroke="black" cx="1735.69" cy="-1425.98" rx="149.907" ry="18.3848"/>
<text text-anchor="middle" x="1735.69" y="-1422.38" font-family="Times Roman,serif" font-size="14.00">Admin::CategoriesController</text>
</g>
<!-- Admin::BaseController&#45;&gt;Admin::CategoriesController -->
<g id="edge60" class="edge"><title>Admin::BaseController&#45;&gt;Admin::CategoriesController</title>
<path fill="none" stroke="black" d="M1448.58,-845.622C1464.03,-888.192 1504.15,-995.75 1545.46,-1082.27 1606.44,-1209.98 1693.54,-1356.47 1724.36,-1407.39"/>
</g>
<!-- Admin::RedirectsController -->
<g id="node33" class="node"><title>Admin::RedirectsController</title>
<ellipse fill="none" stroke="black" cx="1689.06" cy="-1082.35" rx="142.128" ry="18.3848"/>
<text text-anchor="middle" x="1689.06" y="-1078.75" font-family="Times Roman,serif" font-size="14.00">Admin::RedirectsController</text>
</g>
<!-- Admin::BaseController&#45;&gt;Admin::RedirectsController -->
<g id="edge62" class="edge"><title>Admin::BaseController&#45;&gt;Admin::RedirectsController</title>
<path fill="none" stroke="black" d="M1459.69,-845.396C1505.18,-892.39 1625.44,-1016.63 1671.12,-1063.81"/>
</g>
<!-- Admin::SeoController -->
<g id="node34" class="node"><title>Admin::SeoController</title>
<ellipse fill="none" stroke="black" cx="1432.69" cy="-505.483" rx="115.966" ry="18.3848"/>
<text text-anchor="middle" x="1432.69" y="-501.883" font-family="Times Roman,serif" font-size="14.00">Admin::SeoController</text>
</g>
<!-- Admin::BaseController&#45;&gt;Admin::SeoController -->
<g id="edge64" class="edge"><title>Admin::BaseController&#45;&gt;Admin::SeoController</title>
<path fill="none" stroke="black" d="M1441.38,-808.356C1439.75,-751.525 1434.86,-581.113 1433.23,-524.212"/>
</g>
</g>
</svg>
