<?xml version="1.0" encoding="UTF-8" standalone="no"?>
<!DOCTYPE svg PUBLIC "-//W3C//DTD SVG 1.1//EN"
 "http://www.w3.org/Graphics/SVG/1.1/DTD/svg11.dtd">
<!-- Generated by graphviz version 2.26.3 (20100126.1600)
 -->
<!-- Title: models_diagram Pages: 1 -->
<svg width="2612pt" height="514pt"
 viewBox="0.00 0.00 2612.00 514.00" xmlns="http://www.w3.org/2000/svg" xmlns:xlink="http://www.w3.org/1999/xlink">
<g id="graph1" class="graph" transform="scale(1 1) rotate(0) translate(4 510)">
<title>models_diagram</title>
<polygon fill="white" stroke="white" points="-4,5 -4,-510 2609,-510 2609,5 -4,5"/>
<!-- _diagram_info -->
<g id="node1" class="node"><title>_diagram_info</title>
<text text-anchor="start" x="427" y="-489.8" font-family="Times Roman,serif" font-size="13.00">Models diagram</text>
<text text-anchor="start" x="427" y="-472.8" font-family="Times Roman,serif" font-size="13.00">Date: Nov 15 2013 &#45; 22:57</text>
<text text-anchor="start" x="427" y="-455.8" font-family="Times Roman,serif" font-size="13.00">Migration version: 104</text>
<text text-anchor="start" x="427" y="-438.8" font-family="Times Roman,serif" font-size="13.00">Generated by RailRoady 1.1.1</text>
<text text-anchor="start" x="427" y="-421.8" font-family="Times Roman,serif" font-size="13.00">http://railroady.prestonlee.com</text>
</g>
<!-- Resource -->
<g id="node2" class="node"><title>Resource</title>
<ellipse fill="none" stroke="black" cx="206" cy="-95" rx="55.8614" ry="18.3848"/>
<text text-anchor="middle" x="206" y="-91.4" font-family="Times Roman,serif" font-size="14.00">Resource</text>
</g>
<!-- ConfigManager -->
<g id="node3" class="node"><title>ConfigManager</title>
<polygon fill="none" stroke="black" stroke-dasharray="1,5" points="1164,-477 1044,-477 1044,-441 1164,-441 1164,-477"/>
<text text-anchor="middle" x="1104" y="-455.4" font-family="Times Roman,serif" font-size="14.00">ConfigManager</text>
</g>
<!-- User -->
<g id="node4" class="node"><title>User</title>
<ellipse fill="none" stroke="black" cx="564" cy="-263" rx="33.9411" ry="18.3848"/>
<text text-anchor="middle" x="564" y="-259.4" font-family="Times Roman,serif" font-size="14.00">User</text>
</g>
<!-- Content -->
<g id="node7" class="node"><title>Content</title>
<ellipse fill="none" stroke="black" cx="423" cy="-355" rx="51.1176" ry="18.3848"/>
<text text-anchor="middle" x="423" y="-351.4" font-family="Times Roman,serif" font-size="14.00">Content</text>
</g>
<!-- User&#45;&gt;Content -->
<g id="edge6" class="edge"><title>User&#45;&gt;Content</title>
<path fill="none" stroke="#9e3530" d="M557.955,-291.338C554.657,-300.916 549.625,-310.956 542,-318 532.058,-327.186 503.403,-336.232 476.704,-343.08"/>
<polygon fill="#9e3530" stroke="#9e3530" points="557.978,-291.262 565.119,-282.939 559.39,-286.465 560.802,-281.669 560.802,-281.669 560.802,-281.669 559.39,-286.465 556.485,-280.398 557.978,-291.262 557.978,-291.262"/>
<polygon fill="#9e3530" stroke="#9e3530" points="476.698,-343.082 465.906,-341.133 471.846,-344.291 466.995,-345.5 466.995,-345.5 466.995,-345.5 471.846,-344.291 468.083,-349.866 476.698,-343.082 476.698,-343.082"/>
<text text-anchor="middle" x="608" y="-305.4" font-family="Times Roman,serif" font-size="14.00">notify_contents</text>
</g>
<!-- Article -->
<g id="node12" class="node"><title>Article</title>
<ellipse fill="none" stroke="black" cx="648" cy="-187" rx="43.1335" ry="18.3848"/>
<text text-anchor="middle" x="648" y="-183.4" font-family="Times Roman,serif" font-size="14.00">Article</text>
</g>
<!-- User&#45;&gt;Article -->
<g id="edge8" class="edge"><title>User&#45;&gt;Article</title>
<path fill="none" stroke="#46eda9" d="M587.998,-241.288C598.563,-231.728 611.004,-220.473 621.809,-210.697"/>
<ellipse fill="none" stroke="#46eda9" cx="584.78" cy="-244.199" rx="4.00002" ry="4.00002"/>
<polygon fill="#46eda9" stroke="#46eda9" points="621.923,-210.594 632.357,-207.221 625.63,-207.239 629.338,-203.885 629.338,-203.885 629.338,-203.885 625.63,-207.239 626.319,-200.548 621.923,-210.594 621.923,-210.594"/>
</g>
<!-- Notification -->
<g id="node32" class="node"><title>Notification</title>
<ellipse fill="none" stroke="black" cx="520" cy="-187" rx="67.1751" ry="18.3848"/>
<text text-anchor="middle" x="520" y="-183.4" font-family="Times Roman,serif" font-size="14.00">Notification</text>
</g>
<!-- User&#45;&gt;Notification -->
<g id="edge4" class="edge"><title>User&#45;&gt;Notification</title>
<path fill="none" stroke="#6b898c" d="M549.487,-237.933C545.071,-230.304 540.197,-221.885 535.705,-214.127"/>
<ellipse fill="none" stroke="#6b898c" cx="551.568" cy="-241.527" rx="4.00002" ry="4.00002"/>
<polygon fill="#6b898c" stroke="#6b898c" points="535.669,-214.064 534.553,-203.155 533.163,-209.737 530.658,-205.41 530.658,-205.41 530.658,-205.41 533.163,-209.737 526.764,-207.664 535.669,-214.064 535.669,-214.064"/>
</g>
<!-- Sidebar -->
<g id="node5" class="node"><title>Sidebar</title>
<ellipse fill="none" stroke="black" cx="306" cy="-355" rx="48.0833" ry="18.3848"/>
<text text-anchor="middle" x="306" y="-351.4" font-family="Times Roman,serif" font-size="14.00">Sidebar</text>
</g>
<!-- WebNotifier -->
<g id="node6" class="node"><title>WebNotifier</title>
<polygon fill="none" stroke="black" points="1468,-373 1370,-373 1370,-337 1468,-337 1468,-373"/>
<text text-anchor="middle" x="1419" y="-351.4" font-family="Times Roman,serif" font-size="14.00">WebNotifier</text>
</g>
<!-- Content&#45;&gt;User -->
<g id="edge18" class="edge"><title>Content&#45;&gt;User</title>
<path fill="none" stroke="#a1b91d" d="M433.165,-327.177C437.904,-317.445 444.428,-307.171 453,-300 472.254,-283.894 498.784,-274.716 521.079,-269.53"/>
<polygon fill="#a1b91d" stroke="#a1b91d" points="433.048,-327.444 424.894,-334.777 431.03,-332.019 429.011,-336.593 429.011,-336.593 429.011,-336.593 431.03,-332.019 433.129,-338.409 433.048,-327.444 433.048,-327.444"/>
<polygon fill="#a1b91d" stroke="#a1b91d" points="521.203,-269.504 531.922,-271.819 526.093,-268.461 530.983,-267.418 530.983,-267.418 530.983,-267.418 526.093,-268.461 530.045,-263.017 521.203,-269.504 521.203,-269.504"/>
<text text-anchor="middle" x="495.5" y="-305.4" font-family="Times Roman,serif" font-size="14.00">notify_users</text>
</g>
<!-- Redirection -->
<g id="node8" class="node"><title>Redirection</title>
<ellipse fill="none" stroke="black" cx="180" cy="-187" rx="65.9683" ry="18.3848"/>
<text text-anchor="middle" x="180" y="-183.4" font-family="Times Roman,serif" font-size="14.00">Redirection</text>
</g>
<!-- Content&#45;&gt;Redirection -->
<g id="edge20" class="edge"><title>Content&#45;&gt;Redirection</title>
<path fill="none" stroke="#bf9070" d="M376.833,-340.214C372.167,-338.77 367.493,-337.343 363,-336 278.068,-310.616 224.527,-352.658 171,-282 156.643,-263.048 161.212,-235.489 167.999,-214.929"/>
<ellipse fill="none" stroke="#bf9070" cx="380.829" cy="-341.46" rx="4.00001" ry="4.00001"/>
<polygon fill="#bf9070" stroke="#bf9070" points="168.021,-214.866 175.665,-207.003 169.728,-210.166 171.435,-205.466 171.435,-205.466 171.435,-205.466 169.728,-210.166 167.206,-203.93 168.021,-214.866 168.021,-214.866"/>
</g>
<!-- Page -->
<g id="node10" class="node"><title>Page</title>
<ellipse fill="none" stroke="black" cx="335" cy="-263" rx="34.8574" ry="18.3848"/>
<text text-anchor="middle" x="335" y="-259.4" font-family="Times Roman,serif" font-size="14.00">Page</text>
</g>
<!-- Content&#45;&gt;Page -->
<g id="edge32" class="edge"><title>Content&#45;&gt;Page</title>
<path fill="none" stroke="black" d="M404.044,-337.621C397.573,-331.53 390.365,-324.568 384,-318 372.074,-305.694 359.208,-291.202 349.653,-280.184"/>
</g>
<!-- Content&#45;&gt;Article -->
<g id="edge60" class="edge"><title>Content&#45;&gt;Article</title>
<path fill="none" stroke="black" d="M472.915,-350.851C540.344,-344.734 653.589,-332.444 666,-318 693.379,-286.136 672.417,-232.887 658.235,-205.109"/>
</g>
<!-- Trigger -->
<g id="node19" class="node"><title>Trigger</title>
<ellipse fill="none" stroke="black" cx="86" cy="-95" rx="44.7575" ry="18.3848"/>
<text text-anchor="middle" x="86" y="-91.4" font-family="Times Roman,serif" font-size="14.00">Trigger</text>
</g>
<!-- Content&#45;&gt;Trigger -->
<g id="edge24" class="edge"><title>Content&#45;&gt;Trigger</title>
<path fill="none" stroke="#370eac" d="M378.247,-339.727C373.144,-338.315 367.986,-337.03 363,-336 324.065,-327.956 219.619,-337.549 185,-318 170.574,-309.854 118.189,-238.154 105,-206 94.1114,-179.454 89.4629,-146.865 87.4784,-123.885"/>
<ellipse fill="none" stroke="#370eac" cx="382.347" cy="-340.917" rx="4.00001" ry="4.00001"/>
<polygon fill="#370eac" stroke="#370eac" points="87.4665,-123.725 91.2092,-113.418 87.0941,-118.739 86.7217,-113.753 86.7217,-113.753 86.7217,-113.753 87.0941,-118.739 82.2342,-114.088 87.4665,-123.725 87.4665,-123.725"/>
</g>
<!-- Feedback -->
<g id="node21" class="node"><title>Feedback</title>
<ellipse fill="none" stroke="black" cx="516" cy="-95" rx="56.0679" ry="18.3848"/>
<text text-anchor="middle" x="516" y="-91.4" font-family="Times Roman,serif" font-size="14.00">Feedback</text>
</g>
<!-- Content&#45;&gt;Feedback -->
<g id="edge78" class="edge"><title>Content&#45;&gt;Feedback</title>
<path fill="none" stroke="black" d="M418.505,-336.56C409.667,-295.678 394.449,-195.999 438,-132 446.011,-120.228 458.817,-112.098 471.757,-106.528"/>
</g>
<!-- Redirect -->
<g id="node26" class="node"><title>Redirect</title>
<ellipse fill="none" stroke="black" cx="231" cy="-263" rx="51.1176" ry="18.3848"/>
<text text-anchor="middle" x="231" y="-259.4" font-family="Times Roman,serif" font-size="14.00">Redirect</text>
</g>
<!-- Content&#45;&gt;Redirect -->
<g id="edge22" class="edge"><title>Content&#45;&gt;Redirect</title>
<path fill="none" stroke="#001fe3" d="M382.926,-335.798C350.211,-320.122 304.192,-298.071 271.391,-282.354"/>
<polygon fill="#001fe3" stroke="#001fe3" points="383.134,-335.897 390.207,-344.277 387.643,-338.058 392.152,-340.219 392.152,-340.219 392.152,-340.219 387.643,-338.058 394.096,-336.16 383.134,-335.897 383.134,-335.897"/>
<polygon fill="#001fe3" stroke="#001fe3" points="271.108,-282.218 264.034,-273.839 266.599,-280.058 262.09,-277.897 262.09,-277.897 262.09,-277.897 266.599,-280.058 260.145,-281.955 271.108,-282.218 271.108,-282.218"/>
</g>
<!-- Content&#45;&gt;Notification -->
<g id="edge16" class="edge"><title>Content&#45;&gt;Notification</title>
<path fill="none" stroke="#0c8d5b" d="M427.586,-328.482C429.748,-319.203 432.8,-308.889 437,-300 452.398,-267.409 477.754,-234.713 496.396,-212.938"/>
<ellipse fill="none" stroke="#0c8d5b" cx="426.747" cy="-332.396" rx="4.00001" ry="4.00001"/>
<polygon fill="#0c8d5b" stroke="#0c8d5b" points="496.61,-212.692 506.57,-208.105 499.893,-208.921 503.176,-205.15 503.176,-205.15 503.176,-205.15 499.893,-208.921 499.783,-202.195 496.61,-212.692 496.61,-212.692"/>
</g>
<!-- PostType -->
<g id="node9" class="node"><title>PostType</title>
<ellipse fill="none" stroke="black" cx="669" cy="-355" rx="53.9477" ry="18.3848"/>
<text text-anchor="middle" x="669" y="-351.4" font-family="Times Roman,serif" font-size="14.00">PostType</text>
</g>
<!-- Comment -->
<g id="node11" class="node"><title>Comment</title>
<ellipse fill="none" stroke="black" cx="513" cy="-19" rx="58.1882" ry="18.3848"/>
<text text-anchor="middle" x="513" y="-15.4" font-family="Times Roman,serif" font-size="14.00">Comment</text>
</g>
<!-- Article&#45;&gt;Resource -->
<g id="edge44" class="edge"><title>Article&#45;&gt;Resource</title>
<path fill="none" stroke="#e02c88" d="M609.013,-171.637C604.666,-170.26 600.268,-169.008 596,-168 527.215,-151.758 507.704,-161.682 438,-150 365.258,-137.809 347.61,-131.665 276,-114 270.361,-112.609 264.481,-111.102 258.631,-109.567"/>
<ellipse fill="none" stroke="#e02c88" cx="612.949" cy="-172.955" rx="4.00001" ry="4.00001"/>
<polygon fill="#e02c88" stroke="#e02c88" points="258.526,-109.539 250.016,-102.622 253.693,-108.255 248.861,-106.971 248.861,-106.971 248.861,-106.971 253.693,-108.255 247.705,-111.32 258.526,-109.539 258.526,-109.539"/>
</g>
<!-- Article&#45;&gt;Comment -->
<g id="edge50" class="edge"><title>Article&#45;&gt;Comment</title>
<path fill="none" stroke="#2c4022" d="M635.586,-161.268C623.519,-137.695 603.722,-102.536 581,-76 570.499,-63.7358 557.198,-51.9594 545.15,-42.327"/>
<ellipse fill="none" stroke="#2c4022" cx="637.426" cy="-164.917" rx="4.00002" ry="4.00002"/>
<polygon fill="#2c4022" stroke="#2c4022" points="544.946,-42.1686 539.825,-32.4721 541.003,-39.095 537.059,-36.0214 537.059,-36.0214 537.059,-36.0214 541.003,-39.095 534.293,-39.5708 544.946,-42.1686 544.946,-42.1686"/>
</g>
<!-- Article&#45;&gt;Comment -->
<g id="edge52" class="edge"><title>Article&#45;&gt;Comment</title>
<path fill="none" stroke="#5a1c4b" d="M609.013,-171.637C604.666,-170.26 600.268,-169.008 596,-168 532.415,-152.986 346.607,-165.96 307,-114 266.069,-60.3033 372.342,-35.9211 447.018,-25.6722"/>
<ellipse fill="none" stroke="#5a1c4b" cx="612.949" cy="-172.955" rx="4.00001" ry="4.00001"/>
<polygon fill="#5a1c4b" stroke="#5a1c4b" points="447.412,-25.6205 457.913,-28.7799 452.369,-24.9694 457.327,-24.3182 457.327,-24.3182 457.327,-24.3182 452.369,-24.9694 456.741,-19.8565 447.412,-25.6205 447.412,-25.6205"/>
<text text-anchor="middle" x="379" y="-91.4" font-family="Times Roman,serif" font-size="14.00">published_comments</text>
</g>
<!-- Tag -->
<g id="node13" class="node"><title>Tag</title>
<ellipse fill="none" stroke="black" cx="915" cy="-95" rx="27.7881" ry="18.3848"/>
<text text-anchor="middle" x="915" y="-91.4" font-family="Times Roman,serif" font-size="14.00">Tag</text>
</g>
<!-- Article&#45;&gt;Tag -->
<g id="edge58" class="edge"><title>Article&#45;&gt;Tag</title>
<path fill="none" stroke="#14381b" d="M699.969,-181.267C752.667,-174.842 830.164,-163.532 857,-150 871.557,-142.66 884.969,-130.473 895.22,-119.434"/>
<polygon fill="#14381b" stroke="#14381b" points="699.711,-181.298 689.247,-178.018 694.747,-181.892 689.782,-182.486 689.782,-182.486 689.782,-182.486 694.747,-181.892 690.317,-186.954 699.711,-181.298 699.711,-181.298"/>
<polygon fill="#14381b" stroke="#14381b" points="895.459,-119.164 905.463,-114.672 898.778,-115.425 902.097,-111.685 902.097,-111.685 902.097,-111.685 898.778,-115.425 898.731,-108.698 895.459,-119.164 895.459,-119.164"/>
</g>
<!-- Article&#45;&gt;Trigger -->
<g id="edge36" class="edge"><title>Article&#45;&gt;Trigger</title>
<path fill="none" stroke="#cc3b55" d="M609.246,-171.45C604.831,-170.096 600.353,-168.9 596,-168 459.982,-139.865 421.293,-171.048 284,-150 229.872,-141.702 169.472,-123.582 129.78,-110.402"/>
<ellipse fill="none" stroke="#cc3b55" cx="613.285" cy="-172.779" rx="4.00001" ry="4.00001"/>
<polygon fill="#cc3b55" stroke="#cc3b55" points="129.63,-110.352 121.585,-102.901 124.891,-108.759 120.151,-107.166 120.151,-107.166 120.151,-107.166 124.891,-108.759 118.718,-111.432 129.63,-110.352 129.63,-110.352"/>
</g>
<!-- Article&#45;&gt;Feedback -->
<g id="edge42" class="edge"><title>Article&#45;&gt;Feedback</title>
<path fill="none" stroke="#1d0c5d" d="M624.194,-164.424C612.547,-153.943 598.039,-141.69 584,-132 575.455,-126.102 565.875,-120.395 556.663,-115.3"/>
<ellipse fill="none" stroke="#1d0c5d" cx="627.392" cy="-167.341" rx="4.00002" ry="4.00002"/>
<polygon fill="#1d0c5d" stroke="#1d0c5d" points="556.427,-115.172 549.762,-106.464 552.026,-112.799 547.626,-110.425 547.626,-110.425 547.626,-110.425 552.026,-112.799 545.489,-114.385 556.427,-115.172 556.427,-115.172"/>
</g>
<!-- Article&#45;&gt;Feedback -->
<g id="edge56" class="edge"><title>Article&#45;&gt;Feedback</title>
<path fill="none" stroke="#187f22" d="M609.007,-171.663C604.661,-170.281 600.265,-169.021 596,-168 563.349,-160.187 468.28,-175.114 446,-150 433.459,-135.864 448.867,-122.684 468.386,-112.772"/>
<ellipse fill="none" stroke="#187f22" cx="612.942" cy="-172.984" rx="4.00001" ry="4.00001"/>
<polygon fill="#187f22" stroke="#187f22" points="468.51,-112.714 479.474,-112.528 473.034,-110.585 477.558,-108.456 477.558,-108.456 477.558,-108.456 473.034,-110.585 475.642,-104.384 468.51,-112.714 468.51,-112.714"/>
<text text-anchor="middle" x="513" y="-137.4" font-family="Times Roman,serif" font-size="14.00">published_feedback</text>
</g>
<!-- Ping -->
<g id="node22" class="node"><title>Ping</title>
<ellipse fill="none" stroke="black" cx="994" cy="-95" rx="33.234" ry="18.3848"/>
<text text-anchor="middle" x="994" y="-91.4" font-family="Times Roman,serif" font-size="14.00">Ping</text>
</g>
<!-- Article&#45;&gt;Ping -->
<g id="edge38" class="edge"><title>Article&#45;&gt;Ping</title>
<path fill="none" stroke="#8c7708" d="M698.806,-183.378C746.895,-178.926 820.655,-169.424 882,-150 910.371,-141.017 940.544,-125.837 962.417,-113.698"/>
<ellipse fill="none" stroke="#8c7708" cx="694.709" cy="-183.745" rx="4" ry="4"/>
<polygon fill="#8c7708" stroke="#8c7708" points="962.545,-113.625 973.465,-112.627 966.899,-111.167 971.253,-108.708 971.253,-108.708 971.253,-108.708 966.899,-111.167 969.04,-104.79 962.545,-113.625 962.545,-113.625"/>
</g>
<!-- Trackback -->
<g id="node23" class="node"><title>Trackback</title>
<ellipse fill="none" stroke="black" cx="648" cy="-19" rx="58.8978" ry="18.3848"/>
<text text-anchor="middle" x="648" y="-15.4" font-family="Times Roman,serif" font-size="14.00">Trackback</text>
</g>
<!-- Article&#45;&gt;Trackback -->
<g id="edge40" class="edge"><title>Article&#45;&gt;Trackback</title>
<path fill="none" stroke="#01353c" d="M692.571,-174.773C747.273,-157.447 829.069,-122.603 797,-76 785.902,-59.8727 741.625,-44.1752 704.197,-33.3507"/>
<ellipse fill="none" stroke="#01353c" cx="688.535" cy="-176.02" rx="4.00001" ry="4.00001"/>
<polygon fill="#01353c" stroke="#01353c" points="703.978,-33.289 695.579,-26.2384 699.167,-31.9289 694.355,-30.5687 694.355,-30.5687 694.355,-30.5687 699.167,-31.9289 693.131,-34.899 703.978,-33.289 703.978,-33.289"/>
</g>
<!-- Article&#45;&gt;Trackback -->
<g id="edge54" class="edge"><title>Article&#45;&gt;Trackback</title>
<path fill="none" stroke="#f63e64" d="M646.979,-160.07C646.256,-137.592 645.497,-104.708 646,-76 646.161,-66.8205 646.468,-56.8132 646.794,-47.782"/>
<ellipse fill="none" stroke="#f63e64" cx="647.117" cy="-164.148" rx="4" ry="4"/>
<polygon fill="#f63e64" stroke="#f63e64" points="646.795,-47.7292 651.674,-37.9082 646.986,-42.7328 647.177,-37.7365 647.177,-37.7365 647.177,-37.7365 646.986,-42.7328 642.68,-37.5647 646.795,-47.7292 646.795,-47.7292"/>
<text text-anchor="middle" x="719.5" y="-91.4" font-family="Times Roman,serif" font-size="14.00">published_trackbacks</text>
</g>
<!-- Category -->
<g id="node24" class="node"><title>Category</title>
<ellipse fill="none" stroke="black" cx="1101" cy="-95" rx="56.0679" ry="18.3848"/>
<text text-anchor="middle" x="1101" y="-91.4" font-family="Times Roman,serif" font-size="14.00">Category</text>
</g>
<!-- Article&#45;&gt;Category -->
<g id="edge48" class="edge"><title>Article&#45;&gt;Category</title>
<path fill="none" stroke="#0e5733" d="M700.802,-182.281C755.733,-176.793 844.031,-166.339 919,-150 964.989,-139.977 1016.21,-124.056 1052.57,-111.917"/>
<polygon fill="#0e5733" stroke="#0e5733" points="700.561,-182.305 690.17,-178.802 695.585,-182.793 690.609,-183.281 690.609,-183.281 690.609,-183.281 695.585,-182.793 691.048,-187.759 700.561,-182.305 700.561,-182.305"/>
<polygon fill="#0e5733" stroke="#0e5733" points="1052.94,-111.793 1063.85,-112.866 1057.68,-110.197 1062.41,-108.601 1062.41,-108.601 1062.41,-108.601 1057.68,-110.197 1060.98,-104.337 1052.94,-111.793 1052.94,-111.793"/>
</g>
<!-- Categorization -->
<g id="node28" class="node"><title>Categorization</title>
<ellipse fill="none" stroke="black" cx="1101" cy="-19" rx="84.1457" ry="18.3848"/>
<text text-anchor="middle" x="1101" y="-15.4" font-family="Times Roman,serif" font-size="14.00">Categorization</text>
</g>
<!-- Article&#45;&gt;Categorization -->
<g id="edge46" class="edge"><title>Article&#45;&gt;Categorization</title>
<path fill="none" stroke="#691cb0" d="M696.597,-178.723C723.34,-172.97 756.566,-163.807 784,-150 831.494,-126.097 830.323,-99.537 878,-76 922.794,-53.8863 977.017,-39.7776 1020.78,-31.1291"/>
<ellipse fill="none" stroke="#691cb0" cx="692.436" cy="-179.587" rx="4.00001" ry="4.00001"/>
<polygon fill="#691cb0" stroke="#691cb0" points="1020.98,-31.0898 1031.65,-33.6258 1025.89,-30.148 1030.81,-29.2063 1030.81,-29.2063 1030.81,-29.2063 1025.89,-30.148 1029.96,-24.7868 1020.98,-31.0898 1020.98,-31.0898"/>
</g>
<!-- TextFilter -->
<g id="node14" class="node"><title>TextFilter</title>
<ellipse fill="none" stroke="black" cx="836" cy="-355" rx="56.7776" ry="18.3848"/>
<text text-anchor="middle" x="836" y="-351.4" font-family="Times Roman,serif" font-size="14.00">TextFilter</text>
</g>
<!-- Article::States -->
<g id="node15" class="node"><title>Article::States</title>
<polygon fill="none" stroke="black" stroke-dasharray="1,5" points="1736,-477 1622,-477 1622,-441 1736,-441 1736,-477"/>
<text text-anchor="middle" x="1679" y="-455.4" font-family="Times Roman,serif" font-size="14.00">Article::States</text>
</g>
<!-- Right -->
<g id="node16" class="node"><title>Right</title>
<ellipse fill="none" stroke="black" cx="986" cy="-355" rx="36.977" ry="18.3848"/>
<text text-anchor="middle" x="986" y="-351.4" font-family="Times Roman,serif" font-size="14.00">Right</text>
</g>
<!-- Profile -->
<g id="node18" class="node"><title>Profile</title>
<ellipse fill="none" stroke="black" cx="1011" cy="-263" rx="41.9273" ry="18.3848"/>
<text text-anchor="middle" x="1011" y="-259.4" font-family="Times Roman,serif" font-size="14.00">Profile</text>
</g>
<!-- Right&#45;&gt;Profile -->
<g id="edge66" class="edge"><title>Right&#45;&gt;Profile</title>
<path fill="none" stroke="#847c24" d="M993.788,-326.342C996.824,-315.169 1000.29,-302.397 1003.32,-291.262"/>
<polygon fill="#847c24" stroke="#847c24" points="993.681,-326.732 986.717,-335.202 992.37,-331.557 991.059,-336.382 991.059,-336.382 991.059,-336.382 992.37,-331.557 995.402,-337.562 993.681,-326.732 993.681,-326.732"/>
<polygon fill="#847c24" stroke="#847c24" points="1003.33,-291.24 1010.29,-282.77 1004.64,-286.415 1005.95,-281.59 1005.95,-281.59 1005.95,-281.59 1004.64,-286.415 1001.61,-280.41 1003.33,-291.24 1003.33,-291.24"/>
</g>
<!-- Theme -->
<g id="node17" class="node"><title>Theme</title>
<polygon fill="none" stroke="black" points="1781,-373 1717,-373 1717,-337 1781,-337 1781,-373"/>
<text text-anchor="middle" x="1749" y="-351.4" font-family="Times Roman,serif" font-size="14.00">Theme</text>
</g>
<!-- BlogSweeper -->
<g id="node20" class="node"><title>BlogSweeper</title>
<polygon fill="none" stroke="black" points="2097,-373 1991,-373 1991,-337 2097,-337 2097,-373"/>
<text text-anchor="middle" x="2044" y="-351.4" font-family="Times Roman,serif" font-size="14.00">BlogSweeper</text>
</g>
<!-- Feedback&#45;&gt;Comment -->
<g id="edge34" class="edge"><title>Feedback&#45;&gt;Comment</title>
<path fill="none" stroke="black" d="M515.258,-76.2135C514.793,-64.4331 514.196,-49.3096 513.733,-37.5704"/>
</g>
<!-- Feedback&#45;&gt;Trackback -->
<g id="edge82" class="edge"><title>Feedback&#45;&gt;Trackback</title>
<path fill="none" stroke="black" d="M543.994,-78.8824C566.243,-66.072 597.234,-48.2287 619.591,-35.3564"/>
</g>
<!-- Category&#45;&gt;Category -->
<g id="edge84" class="edge"><title>Category&#45;&gt;Category</title>
<path fill="none" stroke="#f99421" d="M1160.92,-101.381C1169.35,-100.341 1175,-98.2146 1175,-95 1175,-92.0776 1170.33,-90.0542 1163.15,-88.9298"/>
<ellipse fill="none" stroke="#f99421" cx="1156.86" cy="-101.7" rx="4" ry="4"/>
<polygon fill="#f99421" stroke="#f99421" points="1162.83,-88.9003 1153.28,-83.5052 1157.85,-88.4433 1152.87,-87.9863 1152.87,-87.9863 1152.87,-87.9863 1157.85,-88.4433 1152.46,-92.4675 1162.83,-88.9003 1162.83,-88.9003"/>
<text text-anchor="middle" x="1202.5" y="-91.4" font-family="Times Roman,serif" font-size="14.00">children</text>
</g>
<!-- Category&#45;&gt;Categorization -->
<g id="edge86" class="edge"><title>Category&#45;&gt;Categorization</title>
<path fill="none" stroke="#486cd9" d="M1101,-68.0731C1101,-61.4485 1101,-54.332 1101,-47.6302"/>
<ellipse fill="none" stroke="#486cd9" cx="1101" cy="-72.2135" rx="4" ry="4"/>
<polygon fill="#486cd9" stroke="#486cd9" points="1101,-47.5704 1105.5,-37.5704 1101,-42.5704 1101,-37.5704 1101,-37.5704 1101,-37.5704 1101,-42.5704 1096.5,-37.5705 1101,-47.5704 1101,-47.5704"/>
</g>
<!-- NotificationMailer -->
<g id="node25" class="node"><title>NotificationMailer</title>
<polygon fill="none" stroke="black" points="2418,-373 2282,-373 2282,-337 2418,-337 2418,-373"/>
<text text-anchor="middle" x="2350" y="-351.4" font-family="Times Roman,serif" font-size="14.00">NotificationMailer</text>
</g>
<!-- Redirect&#45;&gt;Redirection -->
<g id="edge92" class="edge"><title>Redirect&#45;&gt;Redirection</title>
<path fill="none" stroke="#9d2d5f" d="M214.384,-238.239C209.174,-230.474 203.398,-221.868 198.091,-213.959"/>
<ellipse fill="none" stroke="#9d2d5f" cx="216.685" cy="-241.668" rx="4.00002" ry="4.00002"/>
<polygon fill="#9d2d5f" stroke="#9d2d5f" points="197.926,-213.713 196.09,-202.902 195.14,-209.561 192.354,-205.41 192.354,-205.41 192.354,-205.41 195.14,-209.561 188.617,-207.917 197.926,-213.713 197.926,-213.713"/>
</g>
<!-- EmailNotifier -->
<g id="node27" class="node"><title>EmailNotifier</title>
<polygon fill="none" stroke="black" points="1590,-373 1486,-373 1486,-337 1590,-337 1590,-373"/>
<text text-anchor="middle" x="1538" y="-351.4" font-family="Times Roman,serif" font-size="14.00">EmailNotifier</text>
</g>
<!-- Feedback::States -->
<g id="node29" class="node"><title>Feedback::States</title>
<polygon fill="none" stroke="black" stroke-dasharray="1,5" points="2604,-477 2470,-477 2470,-441 2604,-441 2604,-477"/>
<text text-anchor="middle" x="2537" y="-455.4" font-family="Times Roman,serif" font-size="14.00">Feedback::States</text>
</g>
<!-- Blog -->
<g id="node30" class="node"><title>Blog</title>
<ellipse fill="none" stroke="black" cx="1319" cy="-355" rx="33.234" ry="18.3848"/>
<text text-anchor="middle" x="1319" y="-351.4" font-family="Times Roman,serif" font-size="14.00">Blog</text>
</g>
<!-- PageCache -->
<g id="node31" class="node"><title>PageCache</title>
<polygon fill="none" stroke="black" points="1891,-373 1799,-373 1799,-337 1891,-337 1891,-373"/>
<text text-anchor="middle" x="1845" y="-351.4" font-family="Times Roman,serif" font-size="14.00">PageCache</text>
</g>
<!-- ActiveRecord::Base -->
<g id="node33" class="node"><title>ActiveRecord::Base</title>
<ellipse fill="none" stroke="black" cx="751" cy="-459" rx="104.151" ry="18.3848"/>
<text text-anchor="middle" x="751" y="-455.4" font-family="Times Roman,serif" font-size="14.00">ActiveRecord::Base</text>
</g>
<!-- ActiveRecord::Base&#45;&gt;Resource -->
<g id="edge2" class="edge"><title>ActiveRecord::Base&#45;&gt;Resource</title>
<path fill="none" stroke="black" d="M717.395,-441.409C695.435,-430.834 665.777,-418.25 638,-412 536.635,-389.192 251.506,-440.887 172,-374 98.327,-312.021 61.1855,-253.729 105,-168 118.784,-141.029 147.698,-121.725 171.072,-109.769"/>
</g>
<!-- ActiveRecord::Base&#45;&gt;User -->
<g id="edge10" class="edge"><title>ActiveRecord::Base&#45;&gt;User</title>
<path fill="none" stroke="black" d="M697.93,-443.034C665.127,-430.11 625.656,-408.307 606,-374 597.604,-359.346 595.919,-349.55 606,-336 622.619,-313.664 649.381,-340.336 666,-318 670.775,-311.582 670.592,-306.551 666,-300 657.647,-288.084 622.225,-277.075 595.449,-270.218"/>
</g>
<!-- ActiveRecord::Base&#45;&gt;Sidebar -->
<g id="edge12" class="edge"><title>ActiveRecord::Base&#45;&gt;Sidebar</title>
<path fill="none" stroke="black" d="M715.696,-441.554C693.817,-431.446 664.857,-419.31 638,-412 518.947,-379.597 483.148,-402.072 363,-374 355.788,-372.315 348.192,-370.103 340.98,-367.786"/>
</g>
<!-- ActiveRecord::Base&#45;&gt;Content -->
<g id="edge26" class="edge"><title>ActiveRecord::Base&#45;&gt;Content</title>
<path fill="none" stroke="black" d="M713.049,-441.708C691.347,-432.202 663.457,-420.625 638,-412 621.587,-406.44 522.488,-380.653 464.726,-365.738"/>
</g>
<!-- ActiveRecord::Base&#45;&gt;Redirection -->
<g id="edge28" class="edge"><title>ActiveRecord::Base&#45;&gt;Redirection</title>
<path fill="none" stroke="black" d="M717.391,-441.426C695.43,-430.858 665.771,-418.274 638,-412 482.605,-376.891 436.058,-426.036 280,-394 254.93,-388.853 247.89,-387.26 226,-374 194.241,-354.761 181.824,-350.574 164,-318 143.936,-281.331 148.183,-263.786 161,-224 163.037,-217.677 166.064,-211.12 169.106,-205.314"/>
</g>
<!-- ActiveRecord::Base&#45;&gt;PostType -->
<g id="edge30" class="edge"><title>ActiveRecord::Base&#45;&gt;PostType</title>
<path fill="none" stroke="black" d="M736.34,-440.407C721.322,-421.36 698.128,-391.943 683.258,-373.084"/>
</g>
<!-- ActiveRecord::Base&#45;&gt;Tag -->
<g id="edge62" class="edge"><title>ActiveRecord::Base&#45;&gt;Tag</title>
<path fill="none" stroke="black" d="M820.636,-445.164C867.584,-431.315 921,-404.649 921,-355 921,-355 921,-355 921,-187 921,-161.55 918.685,-132.224 916.931,-113.654"/>
</g>
<!-- ActiveRecord::Base&#45;&gt;TextFilter -->
<g id="edge64" class="edge"><title>ActiveRecord::Base&#45;&gt;TextFilter</title>
<path fill="none" stroke="black" d="M766.196,-440.407C781.763,-421.36 805.806,-391.943 821.22,-373.084"/>
</g>
<!-- ActiveRecord::Base&#45;&gt;Right -->
<g id="edge68" class="edge"><title>ActiveRecord::Base&#45;&gt;Right</title>
<path fill="none" stroke="black" d="M808.919,-443.634C846.173,-432.535 894.928,-415.695 935,-394 946.566,-387.738 958.306,-378.963 967.601,-371.322"/>
</g>
<!-- ActiveRecord::Base&#45;&gt;Profile -->
<g id="edge72" class="edge"><title>ActiveRecord::Base&#45;&gt;Profile</title>
<path fill="none" stroke="black" d="M827.229,-446.379C901.73,-432.305 1007.43,-407.099 1032,-374 1052.46,-346.44 1035.13,-304.689 1022.12,-281.028"/>
</g>
<!-- ActiveRecord::Base&#45;&gt;Trigger -->
<g id="edge74" class="edge"><title>ActiveRecord::Base&#45;&gt;Trigger</title>
<path fill="none" stroke="black" d="M717.41,-441.341C695.457,-430.739 665.799,-418.15 638,-412 568.509,-396.627 0,-426.171 0,-355 0,-355 0,-355 0,-187 0,-152.236 33.1751,-125.166 58.3157,-109.643"/>
</g>
<!-- ActiveRecord::Base&#45;&gt;Ping -->
<g id="edge80" class="edge"><title>ActiveRecord::Base&#45;&gt;Ping</title>
<path fill="none" stroke="black" d="M839.806,-449.343C939.949,-435.924 1089,-407.186 1089,-355 1089,-355 1089,-355 1089,-187 1089,-148.428 1048.09,-120.861 1019.96,-106.466"/>
</g>
<!-- ActiveRecord::Base&#45;&gt;Category -->
<g id="edge88" class="edge"><title>ActiveRecord::Base&#45;&gt;Category</title>
<path fill="none" stroke="black" d="M845.483,-451.221C911.981,-443.111 1001.82,-426.747 1075,-394 1101.37,-382.201 1127,-383.889 1127,-355 1127,-355 1127,-355 1127,-187 1127,-160.775 1117.1,-131.877 1109.51,-113.595"/>
</g>
<!-- ActiveRecord::Base&#45;&gt;Redirect -->
<g id="edge94" class="edge"><title>ActiveRecord::Base&#45;&gt;Redirect</title>
<path fill="none" stroke="black" d="M716.295,-441.404C694.397,-431.106 665.204,-418.824 638,-412 553.754,-390.868 312.332,-433.439 249,-374 223.946,-350.486 224.834,-306.839 227.835,-281.856"/>
</g>
<!-- ActiveRecord::Base&#45;&gt;Categorization -->
<g id="edge98" class="edge"><title>ActiveRecord::Base&#45;&gt;Categorization</title>
<path fill="none" stroke="black" d="M824.451,-445.818C964.961,-420.351 1258,-365.93 1258,-355 1258,-355 1258,-355 1258,-95 1258,-71.2282 1198.95,-48.0293 1153.28,-33.6416"/>
</g>
<!-- ActiveRecord::Base&#45;&gt;Blog -->
<g id="edge100" class="edge"><title>ActiveRecord::Base&#45;&gt;Blog</title>
<path fill="none" stroke="black" d="M822.239,-445.42C879.528,-434.932 962.187,-420.773 1035,-412 1087.44,-405.682 1223.03,-413.798 1272,-394 1283.99,-389.151 1295.23,-380.067 1303.71,-371.885"/>
</g>
<!-- ActiveRecord::Base&#45;&gt;Notification -->
<g id="edge104" class="edge"><title>ActiveRecord::Base&#45;&gt;Notification</title>
<path fill="none" stroke="black" d="M752.226,-440.085C752.996,-414.644 751.225,-368.812 732,-336 692.428,-268.462 608.711,-223.899 559.139,-202.281"/>
</g>
<!-- ActiveRecord::Observer -->
<g id="node40" class="node"><title>ActiveRecord::Observer</title>
<ellipse fill="none" stroke="black" cx="1478" cy="-459" rx="125.865" ry="18.3848"/>
<text text-anchor="middle" x="1478" y="-455.4" font-family="Times Roman,serif" font-size="14.00">ActiveRecord::Observer</text>
</g>
<!-- ActiveRecord::Observer&#45;&gt;WebNotifier -->
<g id="edge14" class="edge"><title>ActiveRecord::Observer&#45;&gt;WebNotifier</title>
<path fill="none" stroke="black" d="M1467.45,-440.407C1456.65,-421.36 1439.96,-391.943 1429.26,-373.084"/>
</g>
<!-- ActiveRecord::Observer&#45;&gt;EmailNotifier -->
<g id="edge96" class="edge"><title>ActiveRecord::Observer&#45;&gt;EmailNotifier</title>
<path fill="none" stroke="black" d="M1488.73,-440.407C1499.72,-421.36 1516.69,-391.943 1527.57,-373.084"/>
</g>
<!-- Object -->
<g id="node69" class="node"><title>Object</title>
<ellipse fill="none" stroke="black" cx="1797" cy="-459" rx="43.1335" ry="18.3848"/>
<text text-anchor="middle" x="1797" y="-455.4" font-family="Times Roman,serif" font-size="14.00">Object</text>
</g>
<!-- Object&#45;&gt;Theme -->
<g id="edge70" class="edge"><title>Object&#45;&gt;Theme</title>
<path fill="none" stroke="black" d="M1788.42,-440.407C1779.63,-421.36 1766.05,-391.943 1757.35,-373.084"/>
</g>
<!-- Object&#45;&gt;PageCache -->
<g id="edge102" class="edge"><title>Object&#45;&gt;PageCache</title>
<path fill="none" stroke="black" d="M1805.58,-440.407C1814.37,-421.36 1827.95,-391.943 1836.65,-373.084"/>
</g>
<!-- ActionController::Caching::Sweeper -->
<g id="node73" class="node"><title>ActionController::Caching::Sweeper</title>
<ellipse fill="none" stroke="black" cx="2044" cy="-459" rx="185.969" ry="18.3848"/>
<text text-anchor="middle" x="2044" y="-455.4" font-family="Times Roman,serif" font-size="14.00">ActionController::Caching::Sweeper</text>
</g>
<!-- ActionController::Caching::Sweeper&#45;&gt;BlogSweeper -->
<g id="edge76" class="edge"><title>ActionController::Caching::Sweeper&#45;&gt;BlogSweeper</title>
<path fill="none" stroke="black" d="M2044,-440.407C2044,-421.36 2044,-391.943 2044,-373.084"/>
</g>
<!-- ActionMailer::Base -->
<g id="node81" class="node"><title>ActionMailer::Base</title>
<ellipse fill="none" stroke="black" cx="2350" cy="-459" rx="101.823" ry="18.3848"/>
<text text-anchor="middle" x="2350" y="-455.4" font-family="Times Roman,serif" font-size="14.00">ActionMailer::Base</text>
</g>
<!-- ActionMailer::Base&#45;&gt;NotificationMailer -->
<g id="edge90" class="edge"><title>ActionMailer::Base&#45;&gt;NotificationMailer</title>
<path fill="none" stroke="black" d="M2350,-440.407C2350,-421.36 2350,-391.943 2350,-373.084"/>
</g>
</g>
</svg>
